<?xml version="1.0" ?><svg id="Layer_1" style="enable-background:new 0 0 128 128;" version="1.1" viewBox="0 0 128 128" xml:space="preserve" xmlns="http://www.w3.org/2000/svg" xmlns:xlink="http://www.w3.org/1999/xlink"><style type="text/css">
	.st0{fill:none;stroke:#1D1952;stroke-width:4;stroke-linecap:round;stroke-miterlimit:10;}
	.st1{fill:#F73959;}
	.st2{opacity:0.5;fill:#C02344;}
	.st3{fill:none;stroke:#FFFFFF;stroke-width:4;stroke-linecap:round;stroke-linejoin:round;stroke-miterlimit:10;}
	.st4{fill:#F95F80;}
	.st5{fill:#FFFFFF;}
	.st6{fill:#1D1952;}
	.st7{fill:#EF8FA9;}
	.st8{fill:none;stroke:#AAAAE5;stroke-width:4;stroke-linecap:round;stroke-miterlimit:10;}
	.st9{fill:#AAAAE5;}
	.st10{fill:#FFCE00;}
	.st11{fill:#8E072B;}
	.st12{opacity:0.5;fill:#F73959;}
	.st13{fill:none;stroke:#C02344;stroke-width:4;stroke-linecap:round;stroke-linejoin:round;stroke-miterlimit:10;}
	.st14{fill:none;stroke:#FFAA00;stroke-width:4;stroke-linecap:round;stroke-linejoin:round;stroke-miterlimit:10;}
	.st15{fill:#FFAA00;}
	.st16{fill:none;stroke:#FFFFFF;stroke-width:3;stroke-linecap:round;stroke-linejoin:round;stroke-miterlimit:10;}
	.st17{fill:none;stroke:#1D1952;stroke-width:3;stroke-linecap:round;stroke-miterlimit:10;}
	.st18{fill:none;stroke:#C02344;stroke-width:6;stroke-linecap:round;stroke-linejoin:round;stroke-miterlimit:10;}
	.st19{fill:none;stroke:#AAAAE5;stroke-width:4;stroke-linecap:round;stroke-linejoin:round;stroke-miterlimit:10;}
	.st20{fill:#E87498;}
	.st21{fill:none;stroke:#1D1952;stroke-width:4;stroke-miterlimit:10;}
	.st22{fill:none;stroke:#FFAA00;stroke-width:4;stroke-linecap:round;stroke-miterlimit:10;}
	.st23{fill:#7A61F7;}
	.st24{fill:none;stroke:#FFCE00;stroke-width:4;stroke-linecap:round;stroke-miterlimit:10;}
</style><g><line class="st0" x1="113" x2="113" y1="80" y2="101.5"/><path class="st1" d="M99.1,23.1C76,15.7,64,31.7,64,31.7s-12-16-35.1-8.6c-29,9.3-32,47.6-7,70.9c19.1,17.7,33.6,25,39.3,27.5   c1.8,0.7,3.7,0.7,5.5,0c5.8-2.4,20.2-9.7,39.3-27.5C131.1,70.7,128.1,32.4,99.1,23.1z"/><path class="st2" d="M108.1,85c-11.6,10.8-21.6,17.7-28.8,22c-8.2,4.8-18.3,4.8-26.5,0c-7.3-4.3-17.2-11.2-28.8-22   C11.3,73.3,5.8,57.7,7.2,44C1.7,59.5,6.4,79.6,21.9,94c19.1,17.7,33.6,25,39.3,27.5c1.8,0.7,3.7,0.7,5.5,0   c5.8-2.4,20.2-9.7,39.3-27.5c9.8-9.1,15.2-20.4,16.6-31.5C120,70.5,115.2,78.4,108.1,85z"/><path class="st3" d="M39.6,29.2c0.4,0,0.8,0,1.2,0"/><path class="st3" d="M17.8,40.6c3.2-4.6,7.8-8,13.6-9.9"/><path class="st3" d="M95.6,30.4c0.4,0.1,0.7,0.2,1.1,0.3"/><path class="st3" d="M70.4,36.5c0.2-0.2,5.9-7.3,16.8-7.3"/><circle class="st4" cx="38" cy="71" r="9"/><circle class="st4" cx="97" cy="71" r="9"/><path class="st0" d="M35,67c0,0,2-15,11-15s7,15,7,15"/><path class="st0" d="M78,67c0,0,2-15,11-15s7,15,7,15"/><path class="st0" d="M61,81c0,0,0,7,5,7s6-7,6-7"/><polygon class="st10" points="47.4,5.6 46.2,19 77.8,19 75.1,5.6 69.3,10.7 61.6,2 55.9,10.5  "/><g><path class="st15" d="M48.8,12.5l-1.5-5.4L46.2,19h31.6L77,15l-22.3,1.7C52,16.9,49.5,15.1,48.8,12.5z"/></g><g><path class="st0" d="M15,80l0,21.5c0,6.4,5.1,11.5,11.5,11.5h0c6.4,0,11.5-5.1,11.5-11.5V101"/><path class="st0" d="M38,101c-2-3-6-3-6-3"/><line class="st0" x1="37" x2="36.8" y1="92" y2="98.6"/><line class="st0" x1="40" x2="37.8" y1="93" y2="99.6"/><path class="st0" d="M43,95c-0.7,2.3-2.1,4.4-5,6"/></g><g><path class="st0" d="M113,101.5c0,6.4-5.1,11.5-11.5,11.5h0c-6.4,0-11.5-5.1-11.5-11.5V101"/><path class="st0" d="M90,101c2-3,6-3,6-3"/><line class="st0" x1="91" x2="91.2" y1="92" y2="98.6"/><line class="st0" x1="88" x2="90.2" y1="93" y2="99.6"/><path class="st0" d="M85,95c0.7,2.3,2.1,4.4,5,6"/></g></g></svg>